<svg xmlns="http://www.w3.org/2000/svg" xmlns:xlink="http://www.w3.org/1999/xlink" viewBox="0,0,256,256" width="16px" height="16px" fill-rule="nonzero"><g fill-opacity="0.76863" fill="#000000" fill-rule="nonzero" stroke="none" stroke-width="1" stroke-linecap="butt" stroke-linejoin="miter" stroke-miterlimit="10" stroke-dasharray="" stroke-dashoffset="0" font-family="none" font-weight="none" font-size="none" text-anchor="none" style="mix-blend-mode: normal"><g transform="scale(16,16)"><path d="M9,1c-2.75391,0 -5,2.24609 -5,5c0,0.39844 0.08984,0.75781 0.17969,1.11328l-3.17969,3.17969v3.70703h4v-1h1v-1h0.70703l1.17969,-1.17969c0.35547,0.08984 0.71484,0.17969 1.11328,0.17969c2.75391,0 5,-2.24609 5,-5c0,-2.75391 -2.24609,-5 -5,-5zM9,2c2.21484,0 4,1.78516 4,4c0,2.21484 -1.78516,4 -4,4c-0.38672,0 -0.76562,-0.07422 -1.14844,-0.1875l-0.28125,-0.08594l-1.27734,1.27344h-1.29297v1h-1v1h-2v-2.29297l3.27344,-3.27734l-0.08594,-0.28125c-0.11328,-0.38281 -0.1875,-0.76172 -0.1875,-1.14844c0,-2.21484 1.78516,-4 4,-4zM10,4c-0.55078,0 -1,0.44922 -1,1c0,0.55078 0.44922,1 1,1c0.55078,0 1,-0.44922 1,-1c0,-0.55078 -0.44922,-1 -1,-1z"></path></g></g></svg>